<?xml version="1.0" encoding="UTF-8" standalone="no"?>
<!-- Created with Inkscape (http://www.inkscape.org/) -->

<svg
   version="1.1"
   id="svg1"
   width="288.48001"
   height="288"
   viewBox="0 0 288.48001 288"
   sodipodi:docname="046cb442-4ccf-4564-bf82-636cb149fdcc.ai"
   xmlns:inkscape="http://www.inkscape.org/namespaces/inkscape"
   xmlns:sodipodi="http://sodipodi.sourceforge.net/DTD/sodipodi-0.dtd"
   xmlns="http://www.w3.org/2000/svg"
   xmlns:svg="http://www.w3.org/2000/svg">
  <defs
     id="defs1">
    <clipPath
       clipPathUnits="userSpaceOnUse"
       id="clipPath2">
      <path
         d="M 0,216 H 216.36 V 0 H 0 Z"
         transform="translate(-48.738601,-152.865)"
         id="path2" />
    </clipPath>
    <clipPath
       clipPathUnits="userSpaceOnUse"
       id="clipPath4">
      <path
         d="M 0,216 H 216.36 V 0 H 0 Z"
         transform="translate(-59.157401,-137.99511)"
         id="path4" />
    </clipPath>
    <clipPath
       clipPathUnits="userSpaceOnUse"
       id="clipPath6">
      <path
         d="M 0,216 H 216.36 V 0 H 0 Z"
         transform="translate(-104.32761,-142.8124)"
         id="path6" />
    </clipPath>
    <clipPath
       clipPathUnits="userSpaceOnUse"
       id="clipPath8">
      <path
         d="M 0,216 H 216.36 V 0 H 0 Z"
         transform="translate(-188.1195,-110.5396)"
         id="path8" />
    </clipPath>
    <clipPath
       clipPathUnits="userSpaceOnUse"
       id="clipPath10">
      <path
         d="M 0,216 H 216.36 V 0 H 0 Z"
         transform="translate(-28.062901,-83.682805)"
         id="path10" />
    </clipPath>
    <clipPath
       clipPathUnits="userSpaceOnUse"
       id="clipPath12">
      <path
         d="M 0,216 H 216.36 V 0 H 0 Z"
         transform="translate(-105.4071,-123.7329)"
         id="path12" />
    </clipPath>
    <clipPath
       clipPathUnits="userSpaceOnUse"
       id="clipPath14">
      <path
         d="M 0,216 H 216.36 V 0 H 0 Z"
         transform="translate(-60.764201,-106.46691)"
         id="path14" />
    </clipPath>
    <clipPath
       clipPathUnits="userSpaceOnUse"
       id="clipPath16">
      <path
         d="M 0,216 H 216.36 V 0 H 0 Z"
         transform="translate(-152.5452,-105.7543)"
         id="path16" />
    </clipPath>
    <clipPath
       clipPathUnits="userSpaceOnUse"
       id="clipPath18">
      <path
         d="M 0,216 H 216.36 V 0 H 0 Z"
         transform="translate(-98.5462,-83.433805)"
         id="path18" />
    </clipPath>
    <clipPath
       clipPathUnits="userSpaceOnUse"
       id="clipPath20">
      <path
         d="M 0,216 H 216.36 V 0 H 0 Z"
         transform="translate(-55.345901,-72.634104)"
         id="path20" />
    </clipPath>
    <clipPath
       clipPathUnits="userSpaceOnUse"
       id="clipPath22">
      <path
         d="M 0,216 H 216.36 V 0 H 0 Z"
         transform="translate(-144.38721,-31.833503)"
         id="path22" />
    </clipPath>
  </defs>
  <sodipodi:namedview
     id="namedview1"
     pagecolor="#ffffff"
     bordercolor="#000000"
     borderopacity="0.25"
     inkscape:showpageshadow="2"
     inkscape:pageopacity="0.0"
     inkscape:pagecheckerboard="0"
     inkscape:deskcolor="#d1d1d1">
    <inkscape:page
       x="0"
       y="0"
       inkscape:label="1"
       id="page1"
       width="288.48001"
       height="288"
       margin="36.432667 11.958667 36.189335 11.946067"
       bleed="0" />
  </sodipodi:namedview>
  <g
     id="layer-MC0"
     inkscape:groupmode="layer"
     inkscape:label="Layer 1">
    <path
       id="path1"
       d="m 0,0 c 10.75,10.903 18.784,18.444 33.719,23.698 30.753,10.817 61.283,1.973 83.327,-21.038 2.15,-2.244 5.839,-8.758 9.545,-4.514 2.864,3.279 -1.643,7.865 -3.785,10.274 C 89.706,45.646 27.116,45.253 -4.809,6.785 -7.053,4.081 -10.202,1.064 -6.813,-2.04 -3.686,-4.902 -1.953,-1.981 0,0"
       style="fill:#ffffff;fill-opacity:1;fill-rule:nonzero;stroke:none"
       transform="matrix(1.3333333,0,0,-1.3333333,64.9848,84.18)"
       clip-path="url(#clipPath2)" />
    <path
       id="path3"
       d="M 0,0 C 1.208,-1.438 3.808,-1.934 5.41,-0.781 27.849,26.109 63.56,28.014 89,3.862 91.282,1.695 93.918,-3.549 97.82,0.048 100.144,2.19 98.668,4.911 97.072,6.894 73.795,35.828 23.977,35.811 1.137,6.37 -0.365,4.435 -2.024,2.407 0,0"
       style="fill:#ffffff;fill-opacity:1;fill-rule:nonzero;stroke:none"
       transform="matrix(1.3333333,0,0,-1.3333333,78.876533,104.00653)"
       clip-path="url(#clipPath4)" />
    <path
       id="path5"
       d="m 0,0 c -7.148,-0.611 -19.048,-5.222 -23.516,-11.044 -2.853,-3.717 -0.656,-7.956 4.16,-6.678 1.418,0.376 4.966,4.039 6.712,5.166 11.858,7.657 25.82,5.889 36.806,-2.307 0.869,-0.648 1.565,-1.752 2.37,-2.31 3.18,-2.202 7.429,0.354 6.584,4.065 -0.688,3.025 -9.149,8.203 -12.034,9.565 C 14.349,-0.365 7.438,0.636 0,0"
       style="fill:#ffffff;fill-opacity:1;fill-rule:nonzero;stroke:none"
       transform="matrix(1.3333333,0,0,-1.3333333,139.10347,97.583467)"
       clip-path="url(#clipPath6)" />
    <path
       id="path7"
       d="m 0,0 c -0.688,2.228 -7.186,5.665 -9.317,6.883 l -21.482,14.334 c 5.546,-0.679 8.481,3.452 8.098,8.642 C -10.411,21.742 1.942,16.539 14.301,5.76 17.875,2.306 19.625,0.156 19.212,-4.16 19.031,-6.059 18.029,-7.179 17.602,-7.561 17.443,-7.703 16.85,-8.719 14.74,-9.02 H 6.281 C 5.465,-15.586 5.975,-19.211 5.935,-29.014 5.927,-31.003 5.931,-33.708 5.842,-35.711 5.519,-42.928 5.04,-50.254 4.475,-57.434 c -0.148,-1.88 -0.372,-5.113 -2.142,-5.863 -0.211,-0.089 -1.079,-0.465 -1.452,-0.084 -0.308,0.315 -0.391,0.839 -0.322,1.097"
       style="fill:#ffffff;fill-opacity:1;fill-rule:nonzero;stroke:none"
       transform="matrix(1.3333333,0,0,-1.3333333,250.826,140.61387)"
       clip-path="url(#clipPath8)" />
    <path
       id="path9"
       d="m 0,0 c 0.01,8.951 -0.105,17.912 0.178,26.857 0.732,2.372 7.185,5.467 9.317,6.883 6.002,3.984 11.997,8.022 17.881,12.173 -4.706,0.934 -6.342,5.352 -5.401,9.722 L 21.135,55.58 C 9.448,47.813 -1.152,41.163 -14.123,32.617 c -5.929,-3.554 -4.917,-8.55 -4.912,-9.92 0.002,-0.536 0.517,-2.409 1.61,-3.402 2.068,-1.875 2.705,-1.425 2.862,-1.458 2.277,-0.473 6.003,0.348 8.46,0 0.816,-6.566 0.146,-13.352 0.345,-19.995 0.196,-6.536 0.067,-13.341 0.49,-19.796 0.236,-3.606 0.376,-10.329 1.886,-13.468 0.655,-1.363 3.368,-1.911 3.417,0.142"
       style="fill:#ffffff;fill-opacity:1;fill-rule:nonzero;stroke:none"
       transform="matrix(1.3333333,0,0,-1.3333333,37.4172,176.42293)"
       clip-path="url(#clipPath10)" />
    <path
       id="path11"
       d="M 0,0 C -21.735,-2.45 -18.484,-37.083 5.247,-34.407 26.901,-31.964 24.894,2.806 0,0"
       style="fill:#ffffff;fill-opacity:1;fill-rule:nonzero;stroke:none"
       transform="matrix(1.3333333,0,0,-1.3333333,140.5428,123.0228)"
       clip-path="url(#clipPath12)" />
    <path
       id="path13"
       d="m 0,0 c -13.223,-0.835 -18.039,-17.614 -7.304,-25.466 8.697,-6.361 20.761,-0.157 22.12,9.918 0.618,4.583 -2.701,11.499 -6.86,13.621 C 6.373,-1.12 3.429,0.217 0,0"
       style="fill:#ffffff;fill-opacity:1;fill-rule:nonzero;stroke:none"
       transform="matrix(1.3333333,0,0,-1.3333333,81.018933,146.04413)"
       clip-path="url(#clipPath14)" />
    <path
       id="path15"
       d="m 0,0 c -14.872,-2.594 -14.923,-24.016 -0.288,-27.117 3.538,-0.75 6.825,0.099 9.859,2.067 6.31,4.093 8.122,11.408 4.5,18.052 -1.913,3.509 -4.452,5.18 -5.696,5.824 C 6.917,-0.421 3.818,0.666 0,0"
       style="fill:#ffffff;fill-opacity:1;fill-rule:nonzero;stroke:none"
       transform="matrix(1.3333333,0,0,-1.3333333,203.3936,146.99427)"
       clip-path="url(#clipPath16)" />
    <path
       id="path17"
       d="m 0,0 c -10.202,-1.595 -17.958,-12.158 -19.687,-21.713 -0.61,-3.369 -0.398,-5.516 -0.398,-8.725 0,-6.1 -0.036,-12.082 0.808,-18.229 0.114,-0.833 0.375,-1.55 1.334,-5.463 0.146,-0.594 2.986,-0.79 3.821,-0.86 15.959,-1.332 33.361,-1.645 49.311,0.001 0.521,0.054 2.026,0.287 2.348,0.532 1.519,1.16 1.507,11.78 1.653,14.102 0.067,1.069 0.054,1.935 0.159,3.166 1.277,15.01 -2.237,30.947 -18.016,36.375 C 17.727,0.426 3.958,0.619 0,0"
       style="fill:#ffffff;fill-opacity:1;fill-rule:nonzero;stroke:none"
       transform="matrix(1.3333333,0,0,-1.3333333,131.39493,176.75493)"
       clip-path="url(#clipPath18)" />
    <path
       id="path19"
       d="m 0,0 c -13.352,-2.283 -20.069,-17.284 -18.637,-29.625 0.103,-0.89 0.083,-1.603 0.161,-2.297 0.157,-1.4 0.292,-3.238 0.646,-4.456 0.405,-1.393 6.109,-3.008 7.686,-3.475 8.794,-2.603 17.985,-3.788 27.155,-3.819 1.494,0.714 0.057,4.998 -0.012,6.483 -0.331,7.171 -0.871,23.362 0.979,29.651 0.331,1.126 1.151,2.617 1.527,3.799 -0.069,0.438 -4.367,2.562 -5.109,2.827 C 11.19,0.231 3.358,0.574 0,0"
       style="fill:#ffffff;fill-opacity:1;fill-rule:nonzero;stroke:none"
       transform="matrix(1.3333333,0,0,-1.3333333,73.794533,191.15453)"
       clip-path="url(#clipPath20)" />
    <path
       id="path21"
       d="m 0,0 c 0.057,-1.464 1.248,-2.629 2.713,-2.664 1.55,-0.038 3.108,-0.108 4.634,-0.004 6.353,0.434 18.714,2.801 24.647,5.233 0.832,0.341 2.332,0.758 2.713,1.608 0.431,0.964 0.321,11.709 0.18,13.488 C 34.178,26.616 29.16,35.885 20.493,39.267 15.318,41.286 6.315,41.664 1.05,39.989 0.42,39.788 -2.398,38.679 -2.52,38.151 -2.573,37.922 -1.059,34.557 -0.842,33.771 1.544,25.125 0.988,13.932 -0.038,5.078 -0.22,3.507 -0.067,1.73 0,0"
       style="fill:#ffffff;fill-opacity:1;fill-rule:nonzero;stroke:none"
       transform="matrix(1.3333333,0,0,-1.3333333,192.51627,245.55533)"
       clip-path="url(#clipPath22)" />
  </g>
</svg>
